<?xml version="1.0"?><svg id="Icons" viewBox="0 0 60 60" xmlns="http://www.w3.org/2000/svg"><defs><style>.cls-1{fill:#46a5b5;}.cls-2{fill:#66c2d8;}.cls-3{fill:#fcd576;}.cls-4{fill:#fff;}.cls-5{fill:#d8a64e;}.cls-6{fill:#373737;}</style></defs><title/><path class="cls-1" d="M6,49a5,5,0,0,1-5-5V4A3,3,0,0,1,4,1H16.34a4,4,0,0,1,2.83,1.17l2.66,2.66A4,4,0,0,0,24.66,6H46a3,3,0,0,1,3,3v4L9,49Z"/><path class="cls-2" d="M59,16V44a5,5,0,0,1-5,5H6a4.985,4.985,0,0,0,5-5V16a3,3,0,0,1,3-3H56A3,3,0,0,1,59,16Z"/><circle class="cls-3" cx="35" cy="40" r="19"/><ellipse class="cls-4" cx="28" cy="35" rx="4" ry="5"/><ellipse class="cls-4" cx="42" cy="35" rx="4" ry="5"/><path class="cls-5" d="M43.488,49A9,9,0,0,1,35,55h0a9,9,0,0,1-8.488-6L35,48Z"/><path class="cls-4" d="M44,46a8.8,8.8,0,0,1-.52,3H26.52A8.8,8.8,0,0,1,26,46a1,1,0,0,1,1-1H43A1,1,0,0,1,44,46Z"/><path class="cls-6" d="M33,35c0-3.309-2.243-6-5-6s-5,2.691-5,6,2.243,6,5,6S33,38.309,33,35Zm-8,0c0-2.206,1.346-4,3-4s3,1.794,3,4-1.346,4-3,4S25,37.206,25,35Z"/><path class="cls-6" d="M42,29c-2.757,0-5,2.691-5,6s2.243,6,5,6,5-2.691,5-6S44.757,29,42,29Zm0,10c-1.654,0-3-1.794-3-4s1.346-4,3-4,3,1.794,3,4S43.654,39,42,39Z"/><path class="cls-6" d="M56,12H14a4,4,0,0,0-4,4V44a4,4,0,0,1-8,0V4A2,2,0,0,1,4,2H16.34a3.02,3.02,0,0,1,2.123.877l2.66,2.66A5.035,5.035,0,0,0,24.66,7H46a2,2,0,0,1,2,2,1,1,0,0,0,2,0,4,4,0,0,0-4-4H24.66a3.02,3.02,0,0,1-2.123-.877l-2.66-2.66A5.035,5.035,0,0,0,16.34,0H4A4,4,0,0,0,0,4V44a6.006,6.006,0,0,0,6,6H17.706a19.954,19.954,0,0,0,34.588,0H54a6.006,6.006,0,0,0,6-6V16A4,4,0,0,0,56,12ZM35,58A18,18,0,1,1,53,40,18.021,18.021,0,0,1,35,58ZM58,44a4,4,0,0,1-4,4h-.681a20,20,0,1,0-36.638,0h-6.2A5.994,5.994,0,0,0,12,44V16a2,2,0,0,1,2-2H56a2,2,0,0,1,2,2Z"/><path class="cls-6" d="M43,44H27a2,2,0,0,0-2,2,10,10,0,0,0,20,0A2,2,0,0,0,43,44Zm0,2a7.953,7.953,0,0,1-.263,2H27.263A7.953,7.953,0,0,1,27,46Zm-8,8a8,8,0,0,1-6.918-4H41.918A8,8,0,0,1,35,54Z"/><path class="cls-6" d="M29,36V34a1,1,0,0,0-2,0v2a1,1,0,0,0,2,0Z"/><path class="cls-6" d="M42,33a1,1,0,0,0-1,1v2a1,1,0,0,0,2,0V34A1,1,0,0,0,42,33Z"/></svg>